<svg width="512" height="512" viewBox="0 0 512 512" fill="none" xmlns="http://www.w3.org/2000/svg">
  <!-- Background circle with gradient -->
  <defs>
    <linearGradient id="bgGradient" x1="0%" y1="0%" x2="100%" y2="100%">
      <stop offset="0%" style="stop-color:#10b981;stop-opacity:1" />
      <stop offset="100%" style="stop-color:#3b82f6;stop-opacity:1" />
    </linearGradient>
    <linearGradient id="panelGradient" x1="0%" y1="0%" x2="100%" y2="100%">
      <stop offset="0%" style="stop-color:#ffffff;stop-opacity:0.9" />
      <stop offset="100%" style="stop-color:#f3f4f6;stop-opacity:0.9" />
    </linearGradient>
  </defs>
  
  <!-- Background circle -->
  <circle cx="256" cy="256" r="240" fill="url(#bgGradient)" stroke="#ffffff" stroke-width="8"/>
  
  <!-- Solar panel grid -->
  <g transform="translate(128, 128)">
    <!-- Panel 1 -->
    <rect x="0" y="0" width="64" height="64" rx="8" fill="url(#panelGradient)" stroke="#e5e7eb" stroke-width="2"/>
    <!-- Panel 2 -->
    <rect x="72" y="0" width="64" height="64" rx="8" fill="url(#panelGradient)" stroke="#e5e7eb" stroke-width="2"/>
    <!-- Panel 3 -->
    <rect x="144" y="0" width="64" height="64" rx="8" fill="url(#panelGradient)" stroke="#e5e7eb" stroke-width="2"/>
    
    <!-- Panel 4 -->
    <rect x="0" y="72" width="64" height="64" rx="8" fill="url(#panelGradient)" stroke="#e5e7eb" stroke-width="2"/>
    <!-- Panel 5 -->
    <rect x="72" y="72" width="64" height="64" rx="8" fill="url(#panelGradient)" stroke="#e5e7eb" stroke-width="2"/>
    <!-- Panel 6 -->
    <rect x="144" y="72" width="64" height="64" rx="8" fill="url(#panelGradient)" stroke="#e5e7eb" stroke-width="2"/>
    
    <!-- Panel 7 -->
    <rect x="0" y="144" width="64" height="64" rx="8" fill="url(#panelGradient)" stroke="#e5e7eb" stroke-width="2"/>
    <!-- Panel 8 -->
    <rect x="72" y="144" width="64" height="64" rx="8" fill="url(#panelGradient)" stroke="#e5e7eb" stroke-width="2"/>
    <!-- Panel 9 -->
    <rect x="144" y="144" width="64" height="64" rx="8" fill="url(#panelGradient)" stroke="#e5e7eb" stroke-width="2"/>
  </g>
  
  <!-- Sun rays -->
  <g transform="translate(256, 256)">
    <!-- Top ray -->
    <rect x="-4" y="-120" width="8" height="24" rx="4" fill="#fbbf24" opacity="0.8"/>
    <!-- Right ray -->
    <rect x="120" y="-4" width="24" height="8" rx="4" fill="#fbbf24" opacity="0.8"/>
    <!-- Bottom ray -->
    <rect x="-4" y="120" width="8" height="24" rx="4" fill="#fbbf24" opacity="0.8"/>
    <!-- Left ray -->
    <rect x="-120" y="-4" width="24" height="8" rx="4" fill="#fbbf24" opacity="0.8"/>
    
    <!-- Diagonal rays -->
    <rect x="85" y="-85" width="16" height="6" rx="3" fill="#fbbf24" opacity="0.6" transform="rotate(45)"/>
    <rect x="-85" y="85" width="16" height="6" rx="3" fill="#fbbf24" opacity="0.6" transform="rotate(45)"/>
    <rect x="85" y="85" width="16" height="6" rx="3" fill="#fbbf24" opacity="0.6" transform="rotate(-45)"/>
    <rect x="-85" y="-85" width="16" height="6" rx="3" fill="#fbbf24" opacity="0.6" transform="rotate(-45)"/>
  </g>
  
  <!-- Center sun -->
  <circle cx="256" cy="256" r="32" fill="#fbbf24" stroke="#ffffff" stroke-width="4"/>
  
  <!-- Hub indicator -->
  <circle cx="256" cy="256" r="16" fill="#10b981" stroke="#ffffff" stroke-width="3"/>
  <circle cx="256" cy="256" r="8" fill="#ffffff"/>
</svg> 